<?xml version="1.0" encoding="UTF-8"?><svg xmlns="http://www.w3.org/2000/svg" class="header" enable-background="new 0 0 130 30" height="47px" id="Layer_3" preserveAspectRatio="xMidYMid meet" viewBox="0 0 130 30" width="200px"><defs><style>.b2p-yellow-header.header .img {fill:#FFF;}.cls-1{fill:#00355f;}.cls-2{fill:#ffcb00;}</style></defs><title/><path class="cls-1" d="M59.8247,33.2607H56.6094a0.03865,0.03865,0,0,1-.0323-0.0136l-2.7705-3.3809-2.7734,3.3809a0.03924,0.03924,0,0,1-.0317.0136H48.4268a0.04058,0.04058,0,0,1-.0381-0.0234,0.03673,0.03673,0,0,1,.0053-0.041l4.0831-5.0117-4.0376-4.9654a0.04395,0.04395,0,0,1,.0312-0.0703H51.687a0.03829,0.03829,0,0,1,.0308.0196l2.4306,3.0122,2.4746-3.0142a0.04082,0.04082,0,0,1,.0318-0.0176h2.6221a0.04868,0.04868,0,0,1,.0371.0244,0.04927,0.04927,0,0,1-.0059.0459l-3.8306,4.5982,4.3775,5.3789a0.03434,0.03434,0,0,1,.0049.041,0.03761,0.03761,0,0,1-.0352.0234h0Z" transform="translate(-10.15202 -10.40256)"/><path class="cls-1" d="M81.9033,28.8389a0.04148,0.04148,0,0,1-.0351.0175H74.5088a2.77908,2.77908,0,0,0,3.0674,2.6895,8.47439,8.47439,0,0,0,3.9521-1.2637,0.0431,0.0431,0,0,1,.0606.041L81.584,32.585a0.038,0.038,0,0,1-.0235.0351,12.01553,12.01553,0,0,1-4.3251,1.0967h0a5.29871,5.29871,0,0,1-5.4688-5.4893,5.30046,5.30046,0,0,1,5.4688-5.4897,4.459,4.459,0,0,1,4.749,4.6255C81.9844,27.7969,81.9072,28.8057,81.9033,28.8389Zm-4.6679-3.9087a2.611,2.611,0,0,0-2.6768,2.3686h4.8477V27.2002a2.20028,2.20028,0,0,0-2.1709-2.27h0Z" transform="translate(-10.15202 -10.40256)"/><path class="cls-1" d="M95.5352,33.2607a0.0387,0.0387,0,0,1-.042-0.041V23.1899a0.04147,0.04147,0,0,1,.0332-0.04h2.6601a0.04065,0.04065,0,0,1,.0323.04V33.2197a0.038,0.038,0,0,1-.0391.041H95.5352ZM96.8594,21.062a1.627,1.627,0,0,1-1.6377-1.6123,1.63684,1.63684,0,1,1,3.2734,0,1.6253,1.6253,0,0,1-1.6357,1.6123h0Z" transform="translate(-10.15202 -10.40256)"/><path class="cls-1" d="M65.4111,22.7407a7.00662,7.00662,0,0,0-2.3007.4082h-2.646a0.04028,0.04028,0,0,0-.0391.041V39.6357a6.09131,6.09131,0,0,0,2.7319-1.0703l-0.0019-5.0019a11.99238,11.99238,0,0,0,1.709.1533c3.625,0,5.9707-2.1709,5.9707-5.5322A5.2,5.2,0,0,0,65.4111,22.7407ZM64.6904,31.751a5.83336,5.83336,0,0,1-1.5351-.2178l0.0039-6.4351a5.82736,5.82736,0,0,1,1.8047-.3085,3.06689,3.06689,0,0,1,3.08,3.3793A3.25409,3.25409,0,0,1,64.6904,31.751Z" transform="translate(-10.15202 -10.40256)"/><path class="cls-1" d="M90.6943,17.8403v5.25a7.566,7.566,0,0,0-2.1494-.3271,5.41276,5.41276,0,0,0-5.5342,5.5356c0,3.1397,2.0997,5.418,4.9883,5.418a6.41066,6.41066,0,0,0,3.041-.8174l-0.0039.9082a6.10326,6.10326,0,0,0,2.3877-1.0156V16.7661A5.8872,5.8872,0,0,0,90.6943,17.8403Zm0,13.0786a4.884,4.884,0,0,1-2.2636.6407c-1.6416,0-2.625-1.1592-2.625-3.1016,0-2.2441,1.2558-3.6977,3.1972-3.6977a3.98378,3.98378,0,0,1,1.6914.416v5.7426Z" transform="translate(-10.15202 -10.40256)"/><path class="cls-1" d="M110.1641,23.0288a0.11572,0.11572,0,0,0-.1162-0.1123l-2.1475.0039a0.11564,0.11564,0,0,0-.1162.1152v0.3643h-0.0537a6.58291,6.58291,0,0,0-2.6729-.6367,5.413,5.413,0,0,0-5.3056,5.6245,4.97974,4.97974,0,0,0,5.1923,5.3291,3.40916,3.40916,0,0,0,2.8897-1.2031v1.291a6.17511,6.17511,0,0,0,2.3262-1.0166Zm-2.7344,7.8687a4.29618,4.29618,0,0,1-2.1026.6865c-1.7578,0-2.8085-1.1572-2.8085-3.1045,0-2.2119,1.2382-3.6978,3.083-3.6978a4.07286,4.07286,0,0,1,1.8281.5772v5.5386Z" transform="translate(-10.15202 -10.40256)"/><path class="cls-1" d="M41.0781,30.7178l6.6597-.001a6.00877,6.00877,0,0,1-.9297,2.5029H39.8794a1.64821,1.64821,0,0,1-1.6289-1.4883c-0.0029-.0117-0.0088-0.0234-0.0108-0.0332V18.563c0.002-.0098.0079-0.0215,0.0108-0.0313a1.65011,1.65011,0,0,1,1.6289-1.4921c0.0278,0,.0522.0039,0.0771,0.0039l7.7671-.002a6.0882,6.0882,0,0,1-.9297,2.5215H41.0781v3.5742h5.6577a0.041,0.041,0,0,1,.0415.0391v2.4804a0.041,0.041,0,0,1-.0415.0391H41.0781v5.022Z" transform="translate(-10.15202 -10.40256)"/><path class="cls-1" d="M113.3271,30.7148a1.44786,1.44786,0,1,1,0,2.8956A1.44784,1.44784,0,0,1,113.3271,30.7148Z" transform="translate(-10.15202 -10.40256)"/><path class="cls-1" d="M125.8975,28.8564a0.0508,0.0508,0,0,1-.0332.0206h-7.334a2.76667,2.76667,0,0,0,3.0537,2.6777,8.4003,8.4003,0,0,0,3.9414-1.2608,0.04238,0.04238,0,0,1,.0586.0411l-0.0039,2.2558a0.04052,0.04052,0,0,1-.0244.0352,12.00275,12.00275,0,0,1-4.3106,1.0947h0a5.27848,5.27848,0,0,1-5.4463-5.4697,5.279,5.279,0,0,1,5.4463-5.4717,4.44359,4.44359,0,0,1,4.7334,4.6074C125.9785,27.8203,125.9033,28.8232,125.8975,28.8564Zm-4.6524-3.8925a2.60193,2.60193,0,0,0-2.667,2.3603l4.8301-.001V27.2246a2.18862,2.18862,0,0,0-2.1631-2.2607h0Z" transform="translate(-10.15202 -10.40256)"/><path class="cls-1" d="M131.0586,31.5928c0.8672,0,1.3682-.3643,1.3682-0.9785,0-.5469-0.4551-0.8194-1.459-1.2549l-0.958-.4073c-1.7784-.7558-2.6221-1.7343-2.6221-3.081,0-1.8672,1.4824-3.1455,3.7617-3.1455a7.50043,7.50043,0,0,1,3.4658.9111l-0.2509,2.3487a7.68128,7.68128,0,0,0-3.1455-1.2305,0.9942,0.9942,0,0,0-1.1631.8887,1.30108,1.30108,0,0,0,.9804,1.0722l1.5508,0.7276c1.6406,0.7529,2.4834,1.4375,2.4834,3.0136,0,1.9815-1.5039,3.2598-3.8057,3.2598a9.45515,9.45515,0,0,1-3.7851-.7979l0.0908-2.4619A7.631,7.631,0,0,0,131.0586,31.5928Z" transform="translate(-10.15202 -10.40256)"/><path class="cls-1" d="M136.9453,23.1904h-0.6015v1.6573h-0.3819V23.1904h-0.6015V22.8799h1.5849v0.3105Zm1.4942,1.084,0.5351-1.3945h0.5488v1.9678H139.166V23.3096h-0.0097l-0.5879,1.5381h-0.2666l-0.587-1.5381h-0.0097v1.5381h-0.3584V22.8799h0.5537Z" transform="translate(-10.15202 -10.40256)"/><path class="cls-1" d="M32.7778,30.9893a1.27129,1.27129,0,1,0,1.2442,1.2724A1.23333,1.23333,0,0,0,32.7778,30.9893Zm0,2.417a1.14754,1.14754,0,1,1,1.0581-1.1446A1.0659,1.0659,0,0,1,32.7778,33.4063Z" transform="translate(-10.15202 -10.40256)"/><path class="cls-1" d="M33.3682,31.9404c0-.3056-0.187-0.4326-0.5494-0.4326H32.248v1.5049h0.2486V32.3682h0.2309l0.3902,0.6445h0.2788l-0.4214-.6602A0.38623,0.38623,0,0,0,33.3682,31.9404Zm-0.8897.2168V31.6943h0.313c0.1582,0,.3457.0215,0.3457,0.2149,0,0.2304-.1728.248-0.3691,0.248H32.4785Z" transform="translate(-10.15202 -10.40256)"/><path class="cls-1" d="M24.1606,19.6025l-0.4824-1.3662L19.5869,12.77l0.7344-.1831,7.0547,6.0977,4.1518-1.188a5.9575,5.9575,0,0,1,1.4624-.1499,11.97464,11.97464,0,0,0-22.7021,6.8325l9.9429-3.4531Z" transform="translate(-10.15202 -10.40256)"/><path class="cls-1" d="M33.4268,18.4243a6.44189,6.44189,0,0,1-1.4312.7173L27.835,20.3291l-2.774,8.9102-0.7212.2343,0.5865-6.8056-0.3277-1.4126-3.8979,1.1133L10.3965,24.793A11.97486,11.97486,0,1,0,33.4268,18.4243Z" transform="translate(-10.15202 -10.40256)"/><path class="cls-2 img" d="M24.5986,21.2554l0.3277,1.4126-0.5865,6.8056,0.7212-.2343,2.774-8.9102,4.1606-1.1875a6.44189,6.44189,0,0,0,1.4312-.7173c-0.1275-.3667-0.2745-0.7265-0.4366-1.0776a5.9575,5.9575,0,0,0-1.4624.1499l-4.1518,1.188-7.0547-6.0977-0.7344.1831,4.0913,5.4663,0.4824,1.3662L20.231,20.7261l-9.9429,3.4531c0.0317,0.2061.0669,0.4111,0.1084,0.6138l10.3042-2.4243Z" transform="translate(-10.15202 -10.40256)"/></svg>